Coordinates
nRows=257
nColumns=2
inDegrees=yes
endheader
time	ankle_angle_r	
3.95867	  9.412252	
3.99194	  9.475708	
4.0252	  9.414673	
4.05847	  9.397574	
4.09173	  9.374056	
4.125	  9.436834	
4.15827	  9.443931	
4.19153	  9.361800	
4.2248	  9.482901	
4.25806	  9.445190	
4.29133	  9.429932	
4.3246	  9.414673	
4.35786	  9.376476	
4.39113	  9.452773	
4.4244	  9.414673	
4.45766	  9.422543	
4.49093	  9.392121	
4.52419	  9.475708	
4.55746	  9.399414	
4.59073	  9.392411	
4.62399	  9.453544	
4.65726	  9.409505	
4.69052	  9.416507	
4.72379	  9.419261	
4.75706	  9.408154	
4.79032	  9.399414	
4.82359	  9.438865	
4.85685	  9.423703	
4.89012	  9.378023	
4.92339	  9.460449	
4.95665	  9.401972	
4.98992	  9.376045	
5.02319	  9.450936	
5.05645	  9.449152	
5.08972	  9.393862	
5.12298	  9.435387	
5.15625	  9.415490	
5.18952	  9.374159	
5.22278	  9.404579	
5.25605	  9.384208	
5.28931	  9.373869	
5.32258	  9.455574	
5.35585	  9.445190	
5.38911	  9.378261	
5.42238	  9.434517	
5.45565	  9.388644	
5.48891	  9.379764	
5.52218	  9.410378	
5.55544	  9.388353	
5.58871	  9.407618	
5.62198	  9.486961	
5.65524	  9.380247	
5.68851	  9.449002	
5.72177	  9.441475	
5.75504	  9.399414	
5.78831	  9.409979	
5.82157	  9.429932	
5.85484	  9.418001	
5.8881	  9.421136	
5.92137	  9.463584	
5.95464	  9.365858	
5.9879	  9.411732	
6.02117	  9.402259	
6.05444	  9.396666	
6.0877	  9.399414	
6.12097	  9.384155	
6.15423	  9.343295	
6.1875	  9.397053	
6.22077	  9.401679	
6.25403	  9.371064	
6.2873	  9.386227	
6.32056	  9.395465	
6.35383	  9.370774	
6.3871	  9.399414	
6.42036	  9.387525	
6.45363	  9.358401	
6.4869	  9.387137	
6.52016	  9.413279	
6.55343	  9.353638	
6.58669	  9.384155	
6.61996	  9.399414	
6.65323	  9.368896	
6.68649	  9.429021	
6.71976	  9.384970	
6.75302	  9.368178	
6.78629	  9.414052	
6.81956	  9.429932	
6.85282	  9.354066	
6.88609	  9.384817	
6.91935	  9.414438	
6.95262	  9.384155	
6.98589	  9.414632	
7.01915	  9.414561	
7.05242	  9.399414	
7.08569	  9.399414	
7.11895	  9.429240	
7.15222	  9.353638	
7.18548	  9.384694	
7.21875	  9.399414	
7.25202	  9.354370	
7.28528	  9.413844	
7.31855	  9.429932	
7.35181	  9.340424	
7.38508	  9.385275	
7.41835	  9.386587	
7.45161	  9.339691	
7.48488	  9.384155	
7.51815	  9.400920	
7.55141	  9.356843	
7.58468	  9.399414	
7.61794	  9.401210	
7.65121	  9.355531	
7.68448	  9.399414	
7.71774	  9.423018	
7.75101	  9.386338	
7.78427	  9.488688	
7.81754	  9.373649	
7.85081	  9.399414	
7.88407	  9.399414	
7.91734	  9.368896	
7.9506	  9.399414	
7.98387	  9.417532	
8.01714	  9.399414	
8.0504	  9.405519	
8.08367	  9.359937	
8.11694	  9.368896	
8.1502	  9.387498	
8.18347	  9.406294	
8.21673	  9.411137	
8.25	  9.429205	
8.28327	  9.437391	
8.31653	  9.391809	
8.3498	  9.388079	
8.38306	  9.433131	
8.41633	  9.388271	
8.4496	  9.388369	
8.48286	  9.397085	
8.51613	  9.460449	
8.5494	  9.423679	
8.58266	  9.388755	
8.61593	  9.434628	
8.64919	  9.378483	
8.68246	  9.440301	
8.71573	  9.450177	
8.74899	  9.389247	
8.78226	  9.429932	
8.81552	  9.475137	
8.84879	  9.358150	
8.88206	  9.399414	
8.91532	  9.374463	
8.94859	  9.347974	
8.98185	  9.439430	
9.01512	  9.429932	
9.04839	  9.451144	
9.08165	  9.439140	
9.11492	  9.405560	
9.14819	  9.359881	
9.18145	  9.417252	
9.21472	  9.410621	
9.24798	  9.377622	
9.28125	  9.460449	
9.31452	  9.453722	
9.34778	  9.377332	
9.38105	  9.431350	
9.41431	  9.407656	
9.44758	  9.392301	
9.48085	  9.437980	
9.51411	  9.345686	
9.54738	  9.384155	
9.58065	  9.475451	
9.61391	  9.407076	
9.64718	  9.399285	
9.68044	  9.353638	
9.71371	  9.361525	
9.74698	  9.382737	
9.78024	  9.376075	
9.81351	  9.375978	
9.84677	  9.360622	
9.88004	  9.406302	
9.91331	  9.353638	
9.94657	  9.406109	
9.97984	  9.392816	
10.0131	  9.360139	
10.0464	  9.396965	
10.0796	  9.368896	
10.1129	  9.366060	
10.1462	  9.402444	
10.1794	  9.405432	
10.2127	  9.353638	
10.246	  9.395804	
10.2792	  9.380352	
10.3125	  9.342375	
10.3458	  9.399414	
10.379	  9.373280	
10.4123	  9.338379	
10.4456	  9.383680	
10.4788	  9.399414	
10.5121	  9.323120	
10.5454	  9.394460	
10.5786	  9.389699	
10.6119	  9.363160	
10.6452	  9.420603	
10.6784	  9.393291	
10.7117	  9.379684	
10.745	  9.384155	
10.7782	  9.392711	
10.8115	  9.368896	
10.8448	  9.392323	
10.878	  9.407390	
10.9113	  9.380264	
10.9446	  9.407002	
10.9778	  9.399414	
11.0111	  9.395813	
11.0444	  9.387659	
11.0776	  9.426524	
11.1109	  9.375518	
11.1442	  9.411459	
11.1774	  9.454214	
11.2107	  9.378114	
11.244	  9.396490	
11.2772	  9.411845	
11.3105	  9.429932	
11.3437	  9.391512	
11.377	  9.516410	
11.4103	  9.460449	
11.4435	  9.513257	
11.4768	  9.455955	
11.5101	  9.414673	
11.5433	  9.486859	
11.5766	  9.439319	
11.6099	  9.401275	
11.6431	  9.533216	
11.6764	  9.396080	
11.7097	  9.474137	
11.7429	  9.428458	
11.7762	  9.399414	
11.8095	  9.443910	
11.8427	  9.474524	
11.876	  9.431019	
11.9093	  9.369886	
11.9425	  9.399414	
11.9758	  9.414673	
12.0091	  9.368196	
12.0423	  9.397603	
12.0756	  9.338885	
12.1089	  9.338789	
12.1421	  9.353951	
12.1754	  9.353421	
12.2087	  9.323120	
12.2419	  9.384131	
12.2752	  9.323267	
12.3085	  9.338718	
12.3417	  9.353638	
12.375	  9.338379	
12.4083	  9.323120	
12.4415	  9.368340	
12.4748	  9.367590	
